<?xml version="1.0" encoding="iso-8859-1"?>
<!-- Generator: Adobe Illustrator 19.0.0, SVG Export Plug-In . SVG Version: 6.00 Build 0)  -->
<svg version="1.1" id="Layer_1" xmlns="http://www.w3.org/2000/svg" xmlns:xlink="http://www.w3.org/1999/xlink" x="0px" y="0px"
	 viewBox="0 0 496.158 496.158" style="enable-background:new 0 0 496.158 496.158;" xml:space="preserve">
<path style="fill:#4ABC96;" d="M248.082,0.003C111.07,0.003,0,111.063,0,248.085c0,137.001,111.07,248.07,248.082,248.07
	c137.006,0,248.076-111.069,248.076-248.07C496.158,111.062,385.088,0.003,248.082,0.003z"/>
<path style="fill:#FFFFFF;" d="M327.058,109.074h-157.96c-10.468,0-18.955,8.487-18.955,18.956v240.1
	c0,10.469,8.487,18.955,18.955,18.955h157.961c10.471,0,18.955-8.486,18.955-18.955v-240.1
	C346.014,117.56,337.529,109.074,327.058,109.074z"/>
<g>
	<path style="fill:#3A3A3A;" d="M187.754,143.902c-0.627-0.571-1.427-1.955-2.401-4.154l-10.208-23.215h-0.397l-10.125,22.588
		c-0.96,2.158-1.768,3.581-2.422,4.27s-1.488,1.11-2.505,1.263v0.772h9.416v-0.772c-1.476-0.112-2.401-0.279-2.777-0.501
		c-0.64-0.376-0.961-0.961-0.961-1.754c0-0.598,0.195-1.357,0.585-2.276l1.19-2.755h10l1.503,3.528
		c0.39,0.918,0.599,1.441,0.626,1.566c0.084,0.264,0.126,0.522,0.126,0.772c0,0.417-0.153,0.738-0.46,0.96
		c-0.445,0.307-1.218,0.46-2.317,0.46h-0.563v0.772h13.695v-0.772C188.894,144.584,188.226,144.333,187.754,143.902z
		 M167.879,135.823l4.343-9.75l4.217,9.75H167.879z"/>
	<path style="fill:#3A3A3A;" d="M181.452,162.283c-1.386,0-2.643,0.545-3.576,1.429l-0.356-0.583
		c1.531-0.907,2.563-2.571,2.563-4.48c0-2.877-2.333-5.208-5.209-5.208c-2.878,0-5.209,2.332-5.209,5.208
		c0,1.919,1.04,3.59,2.584,4.495l-0.324,0.531c-0.929-0.861-2.169-1.392-3.535-1.392c-2.877,0-5.209,2.332-5.209,5.209
		c0,2.876,2.332,5.208,5.209,5.208c2.36,0,4.351-1.572,4.99-3.725h0.979c-0.11,5.863-4.112,9.06-4.112,9.06h9.287
		c0,0-4.002-3.197-4.113-9.06h1.043c0.639,2.153,2.631,3.725,4.99,3.725c2.877,0,5.209-2.332,5.209-5.208
		C186.661,164.615,184.329,162.283,181.452,162.283z"/>
	<path style="fill:#3A3A3A;" d="M326.884,348.215v0.772c1.475,0.112,2.4,0.279,2.776,0.501c0.64,0.375,0.96,0.96,0.96,1.753
		c0,0.598-0.195,1.357-0.584,2.276l-1.19,2.755h-10l-1.503-3.528c-0.391-0.919-0.599-1.441-0.627-1.566
		c-0.083-0.264-0.125-0.522-0.125-0.772c0-0.417,0.153-0.738,0.46-0.96c0.445-0.306,1.218-0.459,2.317-0.459h0.563v-0.772h-13.695
		v0.772c0.863,0.07,1.53,0.32,2.004,0.752c0.626,0.571,1.427,1.955,2.401,4.154l10.208,23.215h0.398l10.125-22.589
		c0.959-2.158,1.767-3.581,2.421-4.27s1.488-1.11,2.505-1.263v-0.772h-9.414V348.215z M323.772,367.567l-4.217-9.75h8.56
		L323.772,367.567z"/>
	<path style="fill:#3A3A3A;" d="M327.785,321.442c-2.36,0-4.351,1.572-4.99,3.725h-0.979c0.11-5.863,4.112-9.06,4.112-9.06h-9.287
		c0,0,4.002,3.197,4.113,9.06h-1.043c-0.639-2.153-2.63-3.725-4.99-3.725c-2.877,0-5.209,2.332-5.209,5.208
		c0,2.877,2.332,5.209,5.209,5.209c1.386,0,2.643-0.545,3.576-1.429l0.356,0.583c-1.531,0.907-2.562,2.571-2.562,4.48
		c0,2.877,2.332,5.208,5.208,5.208c2.878,0,5.209-2.332,5.209-5.208c0-1.919-1.04-3.59-2.584-4.495l0.324-0.531
		c0.929,0.861,2.169,1.392,3.535,1.392c2.877,0,5.209-2.332,5.209-5.209C332.994,323.774,330.662,321.442,327.785,321.442z"/>
	<path style="fill:#3A3A3A;" d="M279.307,231.566c-6.629,0-12.635,2.607-17.098,6.83l-1.703-2.789
		c7.32-4.335,12.242-12.29,12.242-21.416c0-13.752-11.146-24.899-24.898-24.899s-24.898,11.147-24.898,24.899
		c0,9.173,4.973,17.163,12.355,21.484l-1.555,2.542c-4.441-4.116-10.367-6.651-16.898-6.651c-13.752,0-24.9,11.147-24.9,24.899
		s11.148,24.899,24.9,24.899c11.285,0,20.803-7.513,23.859-17.805h4.672c-0.527,28.024-19.654,43.307-19.654,43.307h44.391
		c0,0-19.127-15.283-19.654-43.307h4.98c3.057,10.292,12.574,17.805,23.859,17.805c13.75,0,24.898-11.146,24.898-24.899
		S293.057,231.566,279.307,231.566z"/>
</g>
<g>
</g>
<g>
</g>
<g>
</g>
<g>
</g>
<g>
</g>
<g>
</g>
<g>
</g>
<g>
</g>
<g>
</g>
<g>
</g>
<g>
</g>
<g>
</g>
<g>
</g>
<g>
</g>
<g>
</g>
</svg>
