<?xml version="1.0" encoding="iso-8859-1"?>
<!-- Generator: Adobe Illustrator 19.0.0, SVG Export Plug-In . SVG Version: 6.00 Build 0)  -->
<svg xmlns="http://www.w3.org/2000/svg" xmlns:xlink="http://www.w3.org/1999/xlink" version="1.1" id="Layer_1" x="0px" y="0px" viewBox="0 0 421.977 421.977" style="enable-background:new 0 0 421.977 421.977;" xml:space="preserve" width="512" height="512">
<g>
	<g>
		<polygon style="fill:#E8E8E8;" points="122.393,202.132 122.393,421.977 202.082,421.977 210.988,260.436 219.894,421.977     299.585,421.977 299.585,202.132   "/>
		<path style="fill:#C3C6C8;" d="M218.353,394.021l1.541,27.956h79.691v-27.956H218.353z M122.393,421.977h79.69l1.541-27.956    h-81.23V421.977z"/>
	</g>
	<g>
		<path style="fill:#FF6361;" d="M102.579,13.002l0.018-0.012l0.048-0.031L102.579,13.002z"/>
		<g>
			<path style="fill:#E8E8E8;" d="M319.332,12.96l0.048,0.031l0.018,0.012L319.332,12.96z M299.583,210.393V105.197l43.371,117.96     l54.04-20.672c0,0-51.789-150.517-62.117-172.707C324.548,7.588,297.608,0,278.44,0H143.536C124.368,0,97.429,7.588,87.1,29.778     c-10.328,22.19-62.117,172.707-62.117,172.707l54.039,20.672l43.371-117.96v105.196H299.583z"/>
			<polygon style="fill:#454F58;" points="180.077,0 241.899,0 210.988,42.792    "/>
			<path style="fill:#C3C6C8;" d="M230.796,0l-19.808,27.422L191.181,0h-22.206l30.911,42.792l-0.605,0.836     c-1.107,1.534-1.704,3.378-1.704,5.27v161.494h18V51.809L253.002,0H230.796z"/>
		</g>
	</g>
	<g>
		<rect x="122.393" y="202.893" style="fill:#454F58;" width="177.19" height="15"/>
		<path style="fill:#454F58;" d="M198.46,267.688h-15c0-17.412,2.711-45.103,7.091-59.481l14.35,4.371    C201.409,224.037,198.46,249.274,198.46,267.688z"/>
		<path style="fill:#454F58;" d="M238.517,267.688h-15c0-18.414-2.949-43.651-6.44-55.11l14.35-4.371    C235.806,222.585,238.517,250.276,238.517,267.688z"/>
	</g>
</g>















</svg>
